<svg width="24" height="24" viewBox="0 0 24 24" fill="none" xmlns="http://www.w3.org/2000/svg">
<g clip-path="url(#clip0_1_626)">
<path d="M22.9995 1.00243C22.1725 0.16396 20.9667 -0.179818 19.8219 0.0965637L4.53614 3.3091C1.63331 3.73865 -0.371665 6.44008 0.0578827 9.34287C0.224874 10.4714 0.750689 11.5162 1.55753 12.3228L3.19627 13.9626C3.273 14.0383 3.31588 14.1418 3.31527 14.2495V17.2731C3.31747 19.1541 4.84177 20.6784 6.72278 20.6806H9.74634C9.85428 20.6806 9.95786 20.7234 10.0343 20.7996L11.673 22.4384C12.6639 23.4358 14.0115 23.9972 15.4175 23.9981C15.9979 23.9977 16.5743 23.9028 17.1242 23.7172C19.022 23.0869 20.401 21.4389 20.6867 19.4598L23.8993 4.222C24.1879 3.0652 23.846 1.84194 22.9995 1.00243ZM3.12133 7.82743C3.39307 6.98788 4.12637 6.38164 5.00206 6.27267C5.0374 6.26798 5.07236 6.26198 5.10704 6.25467L18.4271 3.45509L6.31488 15.5603V14.2495C6.31709 13.3452 5.95695 12.4777 5.31504 11.8409L3.67827 10.2021C3.04784 9.58551 2.83075 8.66004 3.12133 7.82743ZM17.7412 18.8939C17.7332 18.9289 17.7282 18.9638 17.7232 18.9988C17.5496 20.2654 16.3821 21.1513 15.1156 20.9777C14.6152 20.9091 14.151 20.6787 13.7938 20.3217L12.156 18.6839C11.5188 18.0418 10.651 17.6817 9.74639 17.6841H8.43558L20.5448 5.5718L17.7412 18.8939Z" fill="white"/>
</g>
<defs>
<clipPath id="clip0_1_626">
<rect width="24" height="24" fill="white"/>
</clipPath>
</defs>
</svg>
